<svg width="43" height="43" viewBox="0 0 43 43" fill="none" xmlns="http://www.w3.org/2000/svg">
<path d="M22.8664 1.00082C19.4566 0.995399 16.1075 1.90272 13.1668 3.62859C10.226 5.35446 7.80081 7.83598 6.14286 10.8156C4.48492 13.7951 3.65468 17.1641 3.73833 20.5729C3.82198 23.9817 4.81646 27.3059 6.61856 30.2006L1 41.9992L12.7986 36.3806C15.3138 37.9398 18.1564 38.894 21.1028 39.1682C24.0493 39.4425 27.0192 39.0292 29.7788 37.961C32.5385 36.8928 35.0126 35.1988 37.0065 33.0122C39.0005 30.8257 40.4598 28.2063 41.2697 25.3601C42.0797 22.5139 42.2181 19.5186 41.6741 16.6098C41.13 13.7011 39.9185 10.9583 38.1347 8.59716C36.3509 6.23605 34.0435 4.3211 31.3941 3.00296C28.7447 1.68482 25.8256 0.999467 22.8664 1.00082V1.00082Z" stroke="#A799FF" stroke-width="1.39125" stroke-linecap="round" stroke-linejoin="round"/>
<path d="M15.7059 17.0437C15.7941 17.0437 15.8802 17.0698 15.9535 17.1188C16.0268 17.1678 16.0839 17.2374 16.1177 17.3188C16.1514 17.4002 16.1602 17.4898 16.143 17.5763C16.1258 17.6627 16.0834 17.7421 16.0211 17.8044C15.9587 17.8668 15.8793 17.9092 15.7929 17.9264C15.7064 17.9436 15.6168 17.9348 15.5354 17.901C15.454 17.8673 15.3844 17.8102 15.3354 17.7369C15.2865 17.6636 15.2603 17.5775 15.2603 17.4893C15.2603 17.3711 15.3073 17.2578 15.3908 17.1742C15.4744 17.0907 15.5878 17.0437 15.7059 17.0437Z" stroke="#A799FF" stroke-width="1.39125" stroke-linecap="round" stroke-linejoin="round"/>
<path d="M29.9663 17.0437C30.0544 17.0437 30.1406 17.0698 30.2138 17.1188C30.2871 17.1678 30.3442 17.2374 30.378 17.3188C30.4117 17.4002 30.4205 17.4898 30.4033 17.5763C30.3861 17.6627 30.3437 17.7421 30.2814 17.8044C30.2191 17.8668 30.1396 17.9092 30.0532 17.9264C29.9668 17.9436 29.8772 17.9348 29.7957 17.901C29.7143 17.8673 29.6447 17.8102 29.5957 17.7369C29.5468 17.6636 29.5206 17.5775 29.5206 17.4893C29.5206 17.3711 29.5676 17.2578 29.6512 17.1742C29.7347 17.0907 29.8481 17.0437 29.9663 17.0437Z" stroke="#A799FF" stroke-width="1.39125" stroke-linecap="round" stroke-linejoin="round"/>
<path d="M27.2925 23.2825C27.2925 24.4644 26.8229 25.5979 25.9872 26.4336C25.1515 27.2694 24.018 27.7389 22.8361 27.7389C21.6542 27.7389 20.5207 27.2694 19.685 26.4336C18.8493 25.5979 18.3798 24.4644 18.3798 23.2825H27.2925Z" stroke="#A799FF" stroke-width="1.39125" stroke-linecap="round" stroke-linejoin="round"/>
</svg>
