<svg width="41" height="41" viewBox="0 0 41 41" fill="none" xmlns="http://www.w3.org/2000/svg">
<path d="M41 20.5V39.4231C41 39.8413 40.8339 40.2424 40.5381 40.5381C40.2424 40.8339 39.8413 41 39.4231 41H1.57692C1.1587 41 0.7576 40.8339 0.46187 40.5381C0.16614 40.2424 0 39.8413 0 39.4231V1.57692C0 1.1587 0.16614 0.7576 0.46187 0.46187C0.7576 0.16614 1.1587 0 1.57692 0H20.5C20.9182 0 21.3193 0.16614 21.6151 0.46187C21.9108 0.7576 22.0769 1.1587 22.0769 1.57692C22.0769 1.99515 21.9108 2.39625 21.6151 2.69198C21.3193 2.98771 20.9182 3.15385 20.5 3.15385H3.15385V37.8462H37.8462V20.5C37.8462 20.0818 38.0123 19.6807 38.308 19.3849C38.6038 19.0892 39.0049 18.9231 39.4231 18.9231C39.8413 18.9231 40.2424 19.0892 40.5381 19.3849C40.8339 19.6807 41 20.0818 41 20.5ZM11.7638 20.705L30.4188 2.03423C31.5522 0.900838 33.0895 0.264105 34.6923 0.264105C36.2952 0.264105 37.8324 0.900838 38.9658 2.03423C40.0992 3.16762 40.7359 4.70483 40.7359 6.30769C40.7359 7.91055 40.0992 9.44776 38.9658 10.5812L20.295 29.2362C20.1266 29.4061 19.9216 29.5356 19.6958 29.6146L9.98192 33.0208C9.81503 33.0814 9.63909 33.1134 9.46154 33.1154C9.21026 33.1144 8.96286 33.0534 8.73996 32.9374C8.51705 32.8214 8.32508 32.6538 8.18005 32.4486C8.03503 32.2434 7.94113 32.0065 7.9062 31.7577C7.87127 31.5089 7.89631 31.2553 7.97923 31.0181L11.3854 21.3042C11.4644 21.0784 11.5939 20.8734 11.7638 20.705ZM12.0319 28.9681L18.3396 26.7604L36.7265 8.34192C37.2661 7.80241 37.5691 7.07068 37.5691 6.30769C37.5691 5.54471 37.2661 4.81297 36.7265 4.27346C36.187 3.73395 35.4553 3.43086 34.6923 3.43086C33.9293 3.43086 33.1976 3.73395 32.6581 4.27346L14.1923 22.6762L12.0319 28.9681Z" fill="#A799FF"/>
</svg>
