<svg width="41" height="51" viewBox="0 0 41 51" fill="none" xmlns="http://www.w3.org/2000/svg">
<path d="M20.5 9.73076C9.17819 9.73076 0 18.909 0 30.2308C0 41.5526 9.17819 50.7308 20.5 50.7308C31.8218 50.7308 41 41.5526 41 30.2308C41 18.909 31.8218 9.73076 20.5 9.73076ZM20.5 47.5769C10.9337 47.5769 3.15385 39.7939 3.15385 30.2308C3.15385 20.6645 10.9338 12.8846 20.5 12.8846C30.0632 12.8846 37.8462 20.6646 37.8462 30.2308C37.8462 39.7939 30.0632 47.5769 20.5 47.5769ZM5.15269 9.95873C4.71845 9.20102 4.97716 8.24008 5.72867 7.80278L8.46364 6.22586C9.21514 5.78846 10.1823 6.04717 10.6165 6.80488L12.3136 9.74318C10.3362 10.5379 8.50681 11.6097 6.85597 12.9093L5.15269 9.95873ZM34.1441 12.9093C32.4963 11.6095 30.6639 10.5377 28.6865 9.74308L30.3837 6.80478C30.8178 6.04707 31.782 5.78836 32.5396 6.22576L35.2685 7.80268C36.023 8.24008 36.2817 9.20102 35.8475 9.95863L34.1441 12.9093ZM15.7692 5V1.84615C15.7692 0.974505 16.4745 0.269226 17.3462 0.269226H23.6538C24.5255 0.269226 25.2308 0.974505 25.2308 1.84615V5C25.2308 5.87164 24.5255 6.57692 23.6538 6.57692V8.40645C22.619 8.25861 21.5718 8.15384 20.5 8.15384C19.4282 8.15384 18.381 8.25861 17.3462 8.40645V6.57692C16.4745 6.57692 15.7692 5.87164 15.7692 5ZM20.5 16.0385L23.6538 30.2308C23.6538 31.9741 22.2433 33.3846 20.5 33.3846C18.7568 33.3846 17.3462 31.9741 17.3462 30.2308L20.5 16.0385Z" fill="#A799FF"/>
</svg>
